<?xml version="1.0" encoding="UTF-8" standalone="no"?>
<!-- Created with Inkscape (http://www.inkscape.org/) -->

<svg
   width="100.3082mm"
   height="25.189049mm"
   viewBox="0 0 100.3082 25.189049"
   version="1.1"
   id="svg3732"
   inkscape:version="1.1.2 (0a00cf5339, 2022-02-04)"
   sodipodi:docname="kobi-logo.svg"
   xmlns:inkscape="http://www.inkscape.org/namespaces/inkscape"
   xmlns:sodipodi="http://sodipodi.sourceforge.net/DTD/sodipodi-0.dtd"
   xmlns="http://www.w3.org/2000/svg"
   xmlns:svg="http://www.w3.org/2000/svg">
  <sodipodi:namedview
     id="namedview3734"
     pagecolor="#505050"
     bordercolor="#eeeeee"
     borderopacity="1"
     inkscape:pageshadow="0"
     inkscape:pageopacity="0"
     inkscape:pagecheckerboard="0"
     inkscape:document-units="mm"
     showgrid="false"
     inkscape:zoom="1.4788159"
     inkscape:cx="186.63581"
     inkscape:cy="100.75629"
     inkscape:window-width="1920"
     inkscape:window-height="1008"
     inkscape:window-x="0"
     inkscape:window-y="0"
     inkscape:window-maximized="1"
     inkscape:current-layer="layer1" />
  <defs
     id="defs3729" />
  <g
     inkscape:label="Layer 1"
     inkscape:groupmode="layer"
     id="layer1">
    <g
       aria-label="K"
       id="text43246"
       style="font-size:26.5799px;line-height:1.25;font-family:aakar;-inkscape-font-specification:'aakar, Normal';stroke-width:0.664497">
      <path
         d="M 9.8376781,0.49318199 V 2.3469329e-7 H 16.638395 V 0.49318199 q -1.245933,0 -1.894856,0.33744014 Q 14.094615,1.1421053 12.692941,2.5178229 L 7.7611234,7.3977265 13.809089,13.88696 q 2.54378,2.803349 4.075239,2.803349 v 0.493182 H 9.9674628 v -0.493182 q 0.9863632,0 1.1680622,-0.02596 0.648923,-0.103828 0.648923,-0.622966 0,-0.648924 -1.894856,-2.803349 Q 9.2925825,12.563156 8.4100467,11.680621 L 5.6586117,8.9551426 4.9837314,9.5002382 v 4.8539468 q 0,1.427631 0.4153109,1.894856 0.415311,0.441268 1.9208132,0.441268 v 0.493182 H 1.1175871e-8 V 16.690309 Q 1.5055022,16.690309 1.9208132,16.197127 2.3361241,15.703945 2.3361241,14.068659 V 2.8293061 q 0,-1.4795453 -0.4672248,-1.89485623 Q 1.4016745,0.49318199 1.1175871e-8,0.49318199 V 2.3469329e-7 H 7.3717694 V 0.49318199 q -1.5055022,0 -1.9467701,0.44126788 Q 4.9837314,1.3757178 4.9837314,2.8293061 V 8.1504776 Q 9.5261949,4.049282 10.486601,3.0888754 11.60275,1.9467703 11.60275,1.297847 q 0,-0.4931818 -0.389354,-0.64892341 -0.389354,-0.1557416 -1.3757179,-0.1557416 z"
         id="path3857" />
    </g>
    <g
       aria-label="R"
       id="text43448"
       style="font-size:10.5833px;line-height:1.25;font-family:aakar;-inkscape-font-specification:'aakar, Normal';stroke-width:0.264583"
       transform="matrix(2.5114883,0,0,2.5114883,-286.70191,-52.910575)">
      <path
         d="m 127.01727,30.900579 v 0.19637 h -1.66398 l -2.45979,-3.183258 h -0.57877 v 2.056715 c 0,0.365179 0.0551,0.613225 0.16536,0.744138 0.11713,0.124023 0.37207,0.186035 0.76481,0.186035 v 0.19637 h -2.86286 v -0.19637 c 0.39274,0 0.64423,-0.07579 0.75447,-0.227376 0.0827,-0.117133 0.12402,-0.389294 0.12402,-0.816485 v -4.475165 c 0,-0.372069 -0.0551,-0.620115 -0.16536,-0.744138 -0.10335,-0.124023 -0.34106,-0.186034 -0.71313,-0.186034 v -0.19637 h 2.85253 c 0.67523,0 1.22645,0.09991 1.65364,0.299722 0.64767,0.303167 0.97151,0.80615 0.97151,1.508947 0,0.468531 -0.14814,0.844046 -0.44442,1.126543 -0.28939,0.275607 -0.76481,0.478867 -1.42626,0.60978 l 2.12906,2.614819 c 0.13091,0.165364 0.26183,0.289387 0.39274,0.372069 0.13091,0.07579 0.29972,0.113688 0.50643,0.113688 z m -4.70254,-5.891095 -0.008,2.704674 c 0.68213,0 1.20048,-0.227658 1.5381,-0.358571 0.59255,-0.227376 0.88883,-0.664902 0.88883,-1.312577 0,-0.461641 -0.15158,-0.809595 -0.45475,-1.043861 -0.29628,-0.241156 -0.73725,-0.361734 -1.32292,-0.361734 -0.26871,0 -0.44441,0.02412 -0.52709,0.07235 -0.0758,0.04823 -0.11369,0.148141 -0.11369,0.299722 z"
         id="path45151"
         sodipodi:nodetypes="cccccsccccccsscccscsccccccccscscsc" />
    </g>
    <g
       aria-label="עו&quot;ד קובי רוזנברג "
       id="text49205"
       style="font-size:7.7506px;line-height:1.25;font-family:Alef;-inkscape-font-specification:'Alef, Normal';stroke-width:0.193765"
       transform="matrix(1.1568264,0,0,1.1568264,-11.445895,-2.8866174)">
      <path
         d="m 95.302143,11.666972 q 0.03785,-0.14381 0.07569,-0.280051 0.04163,-0.140026 0.08326,-0.283836 l 1.11642,0.295189 q 0.01135,0.132457 0.01892,0.264913 0.0076,0.132457 0.0076,0.264913 -0.03784,0.317896 -0.113534,0.624438 -0.07191,0.302758 -0.189224,0.590378 -0.117319,0.28762 -0.28762,0.556317 -0.166517,0.264913 -0.393585,0.503335 -0.238422,0.249775 -0.537395,0.454137 -0.298973,0.200577 -0.654714,0.370878 -0.257344,0.121103 -0.541179,0.223284 -0.280051,0.102181 -0.601732,0.189224 l -0.18547,-0.582809 q 0.295189,-0.08704 0.605516,-0.193008 0.314111,-0.105965 0.635791,-0.25356 -0.204361,-0.529826 -0.404938,-1.055868 -0.196793,-0.529826 -0.401154,-1.059652 -0.05298,-0.136241 -0.09461,-0.215715 -0.03785,-0.08326 -0.102181,-0.147594 -0.06812,-0.06434 -0.17787,-0.121103 -0.10975,-0.05677 -0.302758,-0.147595 0.06812,-0.136241 0.140025,-0.272482 0.07191,-0.136241 0.147595,-0.272482 0.208146,0.08326 0.35574,0.151379 0.147595,0.06812 0.25356,0.151379 0.105965,0.07569 0.17787,0.17787 0.07191,0.102181 0.136241,0.261129 0.03785,0.0984 0.07569,0.196792 0.03784,0.0984 0.08326,0.2195 0.04541,0.121103 0.102181,0.280051 0.05677,0.155163 0.132456,0.370878 0.07947,0.215715 0.177871,0.49955 0.10218,0.283836 0.238421,0.662283 0.249776,-0.185439 0.427646,-0.420076 0.181654,-0.238422 0.310327,-0.522258 0.124887,-0.283835 0.204361,-0.605515 0.07947,-0.325465 0.121103,-0.700128 z"
         id="path3860" />
      <path
         d="m 91.971809,11.205266 v 3.932067 h -0.654714 v -3.356827 h -0.662283 v -0.57524 z"
         id="path3862" />
      <path
         d="m 87.142817,9.805011 q 0.158948,-0.1135341 0.272482,-0.1551633 0.117319,-0.041629 0.234638,-0.041629 0.208146,0 0.333033,0.079474 0.128672,0.079474 0.181655,0.208146 0.05677,0.1248873 0.04541,0.2876193 -0.01135,0.162733 -0.07947,0.329249 -0.04541,0.105966 -0.121104,0.25356 -0.07191,0.147595 -0.158947,0.302758 -0.08326,0.155163 -0.170302,0.306542 -0.08326,0.147595 -0.14381,0.257344 h -0.507119 l 0.329249,-1.093712 z m 1.517574,0 q 0.158948,-0.1135341 0.272482,-0.1551633 0.113534,-0.041629 0.230853,-0.041629 0.204361,0 0.329249,0.079474 0.124887,0.079474 0.181654,0.208146 0.05677,0.1286713 0.0492,0.2914043 -0.0076,0.162732 -0.07569,0.325464 -0.04541,0.105966 -0.121103,0.25356 -0.07569,0.147595 -0.162732,0.302758 -0.08326,0.155163 -0.170302,0.306542 -0.08326,0.147595 -0.14381,0.257344 h -0.507119 l 0.329249,-1.093712 z"
         id="path3864" />
      <path
         d="m 83.986569,11.780506 q -0.166516,0 -0.298973,-0.0038 -0.132456,-0.0038 -0.257344,-0.01892 -0.121103,-0.01514 -0.245991,-0.04541 -0.124887,-0.03406 -0.272482,-0.09083 0.0492,-0.136241 0.09461,-0.272482 0.0492,-0.136241 0.0984,-0.280051 0.158948,0.0492 0.280051,0.07569 0.121103,0.02649 0.234638,0.04163 0.117318,0.01135 0.242206,0.01514 0.128672,0.0038 0.298973,0.0038 h 2.164718 v 0.57524 H 85.56091 v 3.356827 h -0.654714 v -3.356827 z"
         id="path3866" />
      <path
         d="m 77.636222,11.780506 q -0.166517,0 -0.298974,-0.0038 -0.132456,-0.0038 -0.257344,-0.01892 -0.121103,-0.01514 -0.24599,-0.04541 -0.124888,-0.03406 -0.272482,-0.09083 0.0492,-0.136241 0.09461,-0.272482 0.0492,-0.136241 0.0984,-0.280051 0.158947,0.0492 0.280051,0.07569 0.121103,0.02649 0.234637,0.04163 0.117319,0.01135 0.242206,0.01514 0.128672,0.0038 0.298973,0.0038 h 2.005771 q 0.03028,0.105965 0.04541,0.185439 0.01892,0.07947 0.03028,0.14381 0.01892,0.121103 0.02649,0.249775 0.0076,0.124888 0.0076,0.261129 v 0.53361 q 0,0.193009 -0.01514,0.36331 -0.01514,0.170301 -0.06055,0.329249 -0.04163,0.158948 -0.121103,0.310327 -0.07947,0.151379 -0.21193,0.306542 -0.276267,0.32168 -0.544964,0.616869 -0.264914,0.291404 -0.537396,0.586593 l -0.49955,-0.454136 0.420077,-0.442784 q 0.170301,-0.181654 0.333033,-0.359525 0.166517,-0.181654 0.298973,-0.340602 0.105966,-0.124888 0.162733,-0.245991 0.05677,-0.124888 0.08326,-0.25356 0.02649,-0.132456 0.03028,-0.280051 0.0076,-0.147594 0.0076,-0.325464 0,-0.151379 -0.0038,-0.302758 -0.0038,-0.151379 -0.01135,-0.306542 z m -0.976394,1.93765 q 0,-0.162733 0,-0.295189 0.0038,-0.132457 0.01135,-0.25356 0.01135,-0.124887 0.03028,-0.242206 0.01892,-0.121103 0.0492,-0.25356 0.162732,0.02271 0.32168,0.0492 0.162733,0.02271 0.325465,0.04541 -0.02271,0.136241 -0.04163,0.245991 -0.01514,0.105965 -0.02649,0.215715 -0.0076,0.105965 -0.01135,0.227068 -0.0038,0.117319 -0.0038,0.276267 v 2.596148 h -0.654714 z"
         id="path3868" />
      <path
         d="m 75.308776,11.205266 v 3.932067 H 74.654062 V 11.780506 H 73.99178 v -0.57524 z"
         id="path3870" />
      <path
         d="m 70.933922,11.780506 q -0.166517,0 -0.298973,-0.0038 -0.132457,-0.0038 -0.257344,-0.01892 -0.121103,-0.01514 -0.245991,-0.04541 -0.124888,-0.03406 -0.272482,-0.09083 0.0492,-0.136241 0.09461,-0.272482 0.0492,-0.136241 0.0984,-0.280051 0.158948,0.0492 0.280051,0.07569 0.121103,0.02649 0.234637,0.04163 0.117319,0.01135 0.242207,0.01514 0.128672,0.0038 0.298973,0.0038 h 0.10975 q 0.238421,0 0.469274,0.05298 0.230853,0.05298 0.416292,0.200577 0.181655,0.14381 0.295189,0.397369 0.113534,0.25356 0.113534,0.662283 v 2.043615 h 0.696343 v 0.57524 h -3.583895 v -0.57524 h 2.232838 V 12.61309 q 0,-0.234638 -0.03406,-0.393585 -0.03406,-0.162733 -0.121103,-0.257345 -0.08326,-0.0984 -0.230853,-0.140025 -0.147594,-0.04163 -0.374663,-0.04163 z"
         id="path3872" />
      <path
         d="m 68.704868,11.205266 v 1.226169 q 0,0.204362 -0.0038,0.340603 -0.0038,0.136241 -0.01514,0.249775 -0.01135,0.113534 -0.03028,0.219499 -0.01892,0.105965 -0.0492,0.234637 l -0.639576,-0.09461 q 0.01892,-0.113535 0.03406,-0.208146 0.01514,-0.09461 0.02649,-0.200577 0.01135,-0.105966 0.01514,-0.238422 0.0076,-0.132457 0.0076,-0.317896 V 11.780506 H 67.18351 v -0.57524 z"
         id="path3874" />
      <path
         d="m 62.244773,11.780506 q -0.166517,0 -0.298973,-0.0038 -0.132457,-0.0038 -0.257344,-0.01892 -0.121103,-0.01514 -0.245991,-0.04541 -0.124888,-0.03406 -0.272482,-0.09083 0.0492,-0.136241 0.09461,-0.272482 0.0492,-0.136241 0.0984,-0.280051 0.158948,0.0492 0.280051,0.07569 0.121103,0.02649 0.234637,0.04163 0.117319,0.01135 0.242207,0.01514 0.128672,0.0038 0.298973,0.0038 h 0.35574 q 0.238422,0 0.469275,0.05298 0.234637,0.05298 0.420076,0.200577 0.181655,0.147594 0.295189,0.408723 0.117319,0.261128 0.117319,0.673636 v 2.596148 H 63.421744 V 12.61309 q 0,-0.234638 -0.03406,-0.393585 -0.03406,-0.162733 -0.121103,-0.257345 -0.08704,-0.0984 -0.234637,-0.140025 -0.147595,-0.04163 -0.374663,-0.04163 z"
         id="path3876" />
      <path
         d="m 60.083839,11.205266 v 3.932067 h -0.654714 v -3.356827 h -0.662283 v -0.57524 z"
         id="path3878" />
      <path
         d="m 56.306937,11.780506 q -0.113535,-0.0038 -0.215715,-0.01135 -0.102181,-0.0076 -0.204362,-0.02271 -0.0984,-0.01892 -0.204361,-0.0492 -0.102181,-0.03028 -0.223284,-0.07569 0.0492,-0.136241 0.09461,-0.272482 0.0492,-0.136241 0.0984,-0.280051 0.158948,0.0492 0.280051,0.07569 0.121103,0.02649 0.234637,0.04163 0.117319,0.01135 0.242206,0.01514 0.128672,0.0038 0.298974,0.0038 H 57.9494 v 0.57524 h -0.983963 l 0.53361,3.356827 h -0.669851 z"
         id="path3880" />
      <path
         d="m 54.308735,11.205266 0.01514,0.128672 q 0.01135,0.128672 0.03406,0.351956 0.02649,0.219499 0.05677,0.518473 0.03028,0.295189 0.06434,0.639576 0.03784,0.344387 0.07569,0.719049 0.03784,0.370879 0.07191,0.737972 0.01514,0.166517 0.02271,0.272483 0.0076,0.105965 0.0076,0.193008 0,0.08326 -0.0076,0.166516 -0.0076,0.08326 -0.02271,0.204362 h -2.255546 v -0.57524 h 1.638677 L 53.718371,11.780506 H 52.79496 v -0.57524 z"
         id="path3882" />
      <path
         d="m 49.540299,11.780506 q -0.166517,0 -0.298973,-0.0038 -0.132457,-0.0038 -0.257344,-0.01892 -0.121103,-0.01514 -0.245991,-0.04541 -0.124887,-0.03406 -0.272482,-0.09083 0.0492,-0.136241 0.09461,-0.272482 0.0492,-0.136241 0.0984,-0.280051 0.158948,0.0492 0.280051,0.07569 0.121103,0.02649 0.234637,0.04163 0.117319,0.01135 0.242207,0.01514 0.128672,0.0038 0.298973,0.0038 h 0.10975 q 0.238422,0 0.469274,0.05298 0.230853,0.05298 0.416292,0.200577 0.181655,0.14381 0.295189,0.397369 0.113534,0.25356 0.113534,0.662283 v 2.043615 h 0.696343 v 0.57524 h -3.583895 v -0.57524 h 2.232839 V 12.61309 q 0,-0.234638 -0.03406,-0.393585 -0.03406,-0.162733 -0.121103,-0.257345 -0.08326,-0.0984 -0.230853,-0.140025 -0.147594,-0.04163 -0.374662,-0.04163 z"
         id="path3884" />
      <path
         d="m 45.543896,11.780506 q -0.166517,0 -0.298973,-0.0038 -0.132457,-0.0038 -0.257344,-0.01892 -0.121103,-0.01514 -0.245991,-0.04541 -0.124888,-0.03406 -0.272482,-0.09083 0.0492,-0.136241 0.09461,-0.272482 0.0492,-0.136241 0.0984,-0.280051 0.158948,0.0492 0.280051,0.07569 0.121103,0.02649 0.234637,0.04163 0.117319,0.01135 0.242207,0.01514 0.128672,0.0038 0.298973,0.0038 h 0.35574 q 0.238422,0 0.469275,0.05298 0.234637,0.05298 0.420076,0.200577 0.181655,0.147594 0.295189,0.408723 0.117319,0.261128 0.117319,0.673636 v 2.596148 H 46.720867 V 12.61309 q 0,-0.234638 -0.03406,-0.393585 -0.03406,-0.162733 -0.121103,-0.257345 -0.08704,-0.0984 -0.234637,-0.140025 -0.147595,-0.04163 -0.374663,-0.04163 z"
         id="path3886" />
      <path
         d="m 43.22023,11.205266 v 2.032262 q 0,0.181654 0.05298,0.348171 0.05298,0.162732 0.117318,0.333034 0.10975,0.295189 0.204362,0.597946 0.0984,0.298974 0.174086,0.620654 h -0.6093 q -0.0492,-0.196793 -0.117319,-0.412508 -0.06434,-0.219499 -0.140026,-0.412507 l -0.09461,-0.242206 q -0.121104,0.140025 -0.204362,0.238421 -0.07947,0.09461 -0.14381,0.166517 -0.06434,0.06812 -0.121103,0.128672 -0.05298,0.05677 -0.117319,0.121103 -0.200577,0.204362 -0.435214,0.336818 -0.234637,0.132457 -0.54118,0.177871 -0.03784,-0.14381 -0.07191,-0.28762 -0.03027,-0.147595 -0.05677,-0.291405 0.128672,-0.03406 0.234638,-0.06812 0.105965,-0.03406 0.200577,-0.08326 0.09461,-0.05298 0.17787,-0.121103 0.08704,-0.0719 0.17787,-0.174085 l 0.681205,-0.745541 v -1.687875 h -0.86286 v -0.57524 z"
         id="path3888" />
    </g>
  </g>
</svg>
